<svg width="305" height="324" viewBox="0 0 305 324" fill="none" xmlns="http://www.w3.org/2000/svg">
<path d="M98.6269 1.22606C97.0269 2.29273 97.5602 2.5594 100.894 2.02606C103.294 1.7594 105.427 2.02606 105.56 2.42606C105.96 3.3594 122.627 4.9594 142.36 5.89273C148.494 6.1594 153.96 6.69273 154.627 7.09273C155.427 7.49273 163.56 8.1594 172.76 8.42607C182.094 8.82607 190.094 9.49273 190.494 9.89273C190.894 10.4261 190.227 10.4261 189.027 10.0261C187.16 9.3594 186.627 9.89273 186.627 12.4261C186.627 15.6261 186.494 15.6261 175.694 15.0927C169.56 14.8261 166.494 14.8261 168.627 15.2261C177.694 16.5594 178.494 17.0927 179.694 21.4927C180.494 24.8261 181.56 25.7594 184.094 25.7594C186.36 25.7594 187.427 24.9594 187.694 22.6927C187.96 21.0927 189.827 18.8261 192.094 17.7594C196.627 15.3594 196.627 15.4927 193.96 10.4261C192.627 7.7594 190.894 6.42607 188.894 6.42607C187.294 6.42607 168.227 4.9594 146.627 3.09273C101.96 -0.640602 101.294 -0.640602 98.6269 1.22606ZM111.027 2.02606C110.094 2.29273 108.494 2.29273 107.694 2.02606C106.76 1.62606 107.427 1.3594 109.294 1.3594C111.16 1.3594 111.827 1.62606 111.027 2.02606ZM128.36 3.3594C127.427 3.62606 125.56 3.62606 124.36 3.3594C123.027 2.9594 123.827 2.69273 125.96 2.69273C128.227 2.69273 129.16 2.9594 128.36 3.3594ZM143.027 4.69273C142.094 4.9594 140.494 4.9594 139.694 4.69273C138.76 4.29273 139.427 4.02606 141.294 4.02606C143.16 4.02606 143.827 4.29273 143.027 4.69273ZM160.36 6.02607C159.427 6.29273 157.56 6.29273 156.36 6.02607C155.027 5.62607 155.827 5.3594 157.96 5.3594C160.227 5.3594 161.16 5.62607 160.36 6.02607ZM174.36 7.3594C173.027 7.62607 170.894 7.62607 169.694 7.3594C168.36 6.9594 169.427 6.69273 171.96 6.69273C174.494 6.69273 175.56 6.9594 174.36 7.3594Z" fill="black"/>
<path d="M103.427 10.2927C103.027 10.8261 104.227 11.0927 105.96 10.6927L109.293 10.1594L109.027 57.0928C108.76 93.3594 108.227 104.293 107.027 104.826C105.693 105.226 105.293 97.7594 105.027 70.8261L104.76 36.4261L103.96 71.7594C103.427 102.426 103.027 107.093 101.16 107.493C99.2935 107.759 99.0268 102.959 98.7601 63.4928C98.6268 39.0927 98.2268 18.8261 97.8268 18.5594C97.5601 18.2927 97.2935 29.0927 97.2935 42.5594V67.0928L88.8935 70.4261C78.8935 74.5594 76.2268 78.4261 78.6268 85.8928C79.8268 89.3594 79.8268 91.0928 78.7601 92.1594C77.9601 92.9594 77.2935 94.6928 77.2935 96.0261C77.2935 97.3594 76.3601 98.4261 75.2935 98.4261C71.5601 98.4261 57.2935 105.493 57.2935 107.359C57.2935 109.893 55.5601 109.493 53.5601 106.426C51.8268 103.626 40.6268 98.0261 33.4268 96.4261C29.6935 95.6261 29.2935 95.8928 29.2935 98.9594C29.2935 100.826 29.9601 102.426 30.6268 102.426C33.1601 102.426 31.9601 109.759 28.2268 116.826C24.8935 123.226 23.5601 124.426 13.2935 129.626C1.29346 135.759 -1.77321 138.559 0.89346 141.226C2.09346 142.426 2.36013 142.159 1.69346 139.893C1.29346 138.159 1.56013 137.093 2.62679 137.093C3.42679 137.093 5.02679 136.159 6.09346 135.093C8.49346 132.826 11.1601 132.426 9.82679 134.559C9.29346 135.493 9.82679 135.759 11.5601 135.226C13.0268 134.826 22.2268 135.626 32.0935 137.093C41.9601 138.693 52.4935 140.159 55.5601 140.693C58.7601 141.093 61.4268 142.293 61.9601 143.493C62.6268 145.093 61.5601 145.359 55.6935 144.559C39.4268 142.693 38.3601 142.559 46.6268 144.293C63.4268 147.893 65.1601 148.026 64.4935 145.359C63.1601 138.959 63.1601 130.293 64.4935 129.226C65.9601 128.026 70.6268 125.493 97.9601 111.093C106.093 106.959 119.827 99.6261 128.76 94.9594C143.96 86.9594 145.027 86.5594 150.76 87.6261C156.36 88.6928 156.493 88.6928 153.293 90.0261C151.427 90.8261 146.627 93.3594 142.627 95.7594C138.627 98.1594 130.76 102.559 125.293 105.493C119.827 108.426 112.893 112.159 109.96 113.759C107.027 115.359 99.0268 119.759 92.0935 123.493C85.1601 127.359 77.9601 130.559 76.0935 130.559C72.8935 130.826 72.8935 130.826 75.6935 131.359C78.3601 131.893 78.6268 132.693 78.6268 141.226C78.6268 150.426 78.6268 150.426 82.3601 150.426C84.7601 150.426 85.4268 150.026 84.2268 149.226C82.7601 148.426 82.8935 147.893 84.7601 147.226C87.9601 146.026 95.6935 147.759 96.4935 149.893C97.0268 151.359 96.0935 151.626 91.5601 151.093C86.0935 150.559 86.2268 150.559 92.6268 152.159C97.9601 153.493 99.2935 154.293 99.5601 156.693C99.9601 160.426 100.627 160.426 79.0268 156.293C69.1601 154.426 60.3601 153.226 59.5601 153.626C58.6268 153.893 59.0268 154.293 60.3601 154.293C61.8268 154.426 63.5601 156.426 64.7601 159.359C65.9601 162.026 68.8935 167.493 71.4268 171.359C73.9601 175.226 75.9601 179.093 75.9601 179.759C75.9601 180.426 74.3601 182.026 72.3601 183.359C70.2268 184.559 61.0268 190.559 51.6935 196.693C32.7601 209.093 30.7601 210.159 30.4935 207.626C30.3601 206.559 29.8268 197.359 29.2935 187.093C28.3601 171.226 28.3601 172.559 28.8935 195.893L29.4268 223.493L25.6935 226.426L21.9601 229.359L21.2935 222.693C20.8935 218.959 20.0935 215.493 19.4268 214.826C18.7601 214.159 18.6268 214.826 19.0268 216.159C19.5601 217.493 19.9601 221.626 19.9601 225.226C19.9601 230.959 20.3601 231.759 22.6268 231.759C24.2268 231.759 33.1601 233.626 42.7601 235.893C52.3601 238.159 60.3601 239.759 60.7601 239.493C61.0268 239.093 52.7601 236.826 42.3601 234.426L23.4268 230.026L27.2935 226.959C30.6268 224.293 31.1601 222.959 31.0268 217.893L30.7601 211.893L44.3601 203.093C80.7601 179.093 75.8268 180.959 84.2268 188.159L91.1601 194.159L90.7601 206.159C90.3601 220.426 92.7601 226.693 100.893 231.893C106.627 235.759 118.893 241.093 121.56 241.093C122.493 241.093 119.427 239.359 114.627 237.359C93.9601 228.826 93.2935 227.626 93.2935 201.893C93.2935 183.759 93.4268 182.426 95.8268 182.426C97.1601 182.426 99.1601 181.226 100.093 179.626L101.96 176.959L108.227 179.626C112.227 181.226 114.76 183.359 115.293 185.359C115.827 187.093 118.093 193.093 120.36 198.826C123.56 207.626 124.627 209.093 126.093 207.493C127.56 206.026 127.293 204.026 124.36 195.359C122.493 189.626 121.293 184.693 121.56 184.426C121.827 184.159 126.493 184.559 131.96 185.226C153.693 188.026 181.027 186.426 196.76 181.493C201.827 179.893 204.893 179.759 208.76 180.693L213.96 181.893L213.827 194.959C213.827 205.759 213.427 208.293 211.56 209.359C208.627 210.959 208.627 213.893 211.427 214.959C213.16 215.626 213.427 216.959 212.893 220.693C211.827 227.093 207.693 231.226 197.96 235.893C193.56 238.026 190.76 239.759 191.693 239.759C194.227 239.759 204.093 234.559 208.627 230.693C210.893 228.959 213.56 224.693 214.76 221.359C215.827 218.026 217.56 214.959 218.627 214.693C219.96 214.159 220.227 216.426 219.56 225.893C218.36 241.493 217.96 270.293 218.893 271.093C219.293 271.493 219.693 263.893 219.827 254.159C219.96 244.426 220.36 233.093 220.627 229.093C220.893 225.093 221.56 212.693 221.96 201.626L222.893 181.359L217.027 180.426C213.827 180.026 203.827 178.159 194.627 176.426C185.427 174.693 175.027 172.959 171.293 172.693C167.693 172.426 165.96 172.426 167.693 172.693C169.293 172.959 170.627 173.759 170.627 174.426C170.627 176.559 167.827 183.093 166.493 183.893C164.36 185.226 135.96 184.026 127.427 182.293C120.093 180.693 119.56 180.426 117.16 174.826C114.493 168.426 113.96 165.626 115.693 164.559C116.227 164.293 125.693 165.759 136.627 167.893C147.693 170.026 158.093 171.626 159.96 171.493C161.827 171.226 153.16 169.359 140.76 167.226C127.693 164.959 117.56 162.426 116.36 161.359C115.293 160.293 114.627 157.893 114.893 156.026C115.293 152.426 119.827 148.826 138.227 137.226C143.56 133.893 156.093 125.759 166.227 119.226L184.627 107.359L197.827 108.959C205.027 109.893 211.16 110.293 211.427 110.026C211.827 109.626 208.76 108.959 204.76 108.559C196.36 107.493 195.427 106.159 196.227 95.4928C196.627 87.7594 194.893 86.0261 190.893 90.4261C188.493 93.0928 187.827 93.0928 175.16 91.6261C167.96 90.8261 161.027 89.3594 159.96 88.4261C158.893 87.4928 155.027 86.4261 151.56 85.8928C145.827 85.2261 143.96 85.7594 133.293 91.0928C126.76 94.4261 121.027 97.0928 120.627 97.0928C120.227 97.0928 119.96 95.8928 119.96 94.5594C119.96 91.0928 115.827 83.8928 113.293 83.0928C111.56 82.5594 111.16 77.0928 110.893 46.5594C110.36 12.5594 110.493 10.6927 112.893 10.0261C114.227 9.62608 112.76 9.35941 109.693 9.22608C106.627 9.22608 103.827 9.62608 103.427 10.2927ZM168.493 92.2928C169.693 92.5594 164.627 95.8928 153.96 101.893C151.027 103.493 143.293 108.026 136.627 111.893C101.827 132.159 102.093 132.159 92.2268 131.359L83.2935 130.693L91.2935 132.293L99.2935 133.893V139.759C99.2935 146.293 99.1601 146.426 88.8935 144.693C85.9601 144.293 84.2268 144.426 84.6268 145.226C85.1601 145.893 85.1601 146.426 84.7601 146.426C84.4935 146.426 83.1601 146.826 81.9601 147.226C80.0935 148.026 79.8268 146.959 80.2268 139.759L80.6268 131.493L88.6268 127.226C93.0268 124.826 102.893 119.359 110.627 115.093C118.36 110.826 129.16 104.959 134.627 102.026C140.093 99.0928 146.093 95.7594 147.96 94.4261C149.827 93.2261 152.227 91.8928 153.293 91.4928C155.027 90.9594 165.027 91.4928 168.493 92.2928ZM185.027 95.7594C186.627 97.3594 187.96 98.9594 187.96 99.3594C187.96 99.8928 186.627 98.9594 185.027 97.4928C183.293 95.8928 180.227 94.4261 177.96 94.0261L173.96 93.4928L178.093 93.2261C180.493 93.2261 183.293 94.1594 185.027 95.7594ZM173.827 95.4928C174.093 96.0261 173.293 97.2261 171.827 98.1594C169.693 99.6261 169.293 99.3594 169.293 97.0928C169.293 94.5594 172.493 93.3594 173.827 95.4928ZM167.96 98.2928C167.96 99.8928 166.093 101.759 163.027 103.359C160.227 104.826 148.893 111.493 137.827 118.159C125.96 125.493 116.227 130.426 114.093 130.426C108.893 130.426 109.827 128.693 117.693 124.693C121.427 122.559 130.093 117.626 136.627 113.626C143.293 109.626 150.76 105.226 153.293 104.026C155.827 102.693 160.093 100.293 162.627 98.6928C168.227 95.0928 167.96 95.2261 167.96 98.2928ZM185.16 101.626C184.76 102.026 183.693 100.959 182.76 99.3594C181.027 96.5594 181.16 96.5594 183.427 98.6928C184.76 100.026 185.56 101.359 185.16 101.626ZM44.3601 103.093C49.5601 103.626 53.2935 105.626 53.2935 108.159C53.2935 108.959 51.6935 108.159 49.6935 106.293C47.0268 104.026 46.6268 103.893 48.3601 105.893C51.1601 109.226 51.2935 110.426 48.4935 110.426C47.4268 110.426 46.7601 110.959 47.1601 111.626C48.8935 114.293 43.6935 114.159 41.5601 111.493C40.3601 109.893 37.9601 107.359 36.3601 105.759C33.1601 102.693 33.6935 100.426 37.1601 101.893C38.3601 102.293 41.5601 102.959 44.3601 103.093ZM191.96 103.759C191.96 105.493 191.16 106.426 189.693 106.293C188.227 106.293 187.96 105.893 189.027 105.493C189.827 105.226 190.627 104.026 190.627 102.959C190.627 101.893 190.893 101.093 191.293 101.093C191.693 101.093 191.96 102.293 191.96 103.759ZM39.9601 114.159C39.9601 116.293 35.1601 119.759 32.4935 119.759C31.4268 119.759 37.8268 111.893 39.0268 111.893C39.5601 111.759 39.9601 112.826 39.9601 114.159ZM121.427 134.559C124.227 136.026 124.893 140.026 122.36 139.359C121.56 139.226 120.627 140.293 120.36 141.759C119.16 147.759 118.893 148.026 114.76 145.759C112.493 144.693 108.627 143.759 105.96 143.759C101.427 143.759 101.293 143.626 101.293 138.959V134.293L107.693 135.093C111.16 135.626 115.293 136.826 116.76 137.893C120.093 139.893 121.96 138.826 119.827 136.159C119.027 135.226 116.093 134.426 113.427 134.293C110.76 134.293 107.427 133.626 105.96 132.959C104.093 132.159 105.693 131.893 111.16 132.426C115.427 132.826 120.093 133.759 121.427 134.559ZM126.627 133.759C127.427 134.826 127.96 136.559 127.693 137.626C127.427 139.093 126.627 138.559 125.027 135.759C122.627 131.626 123.693 130.293 126.627 133.759ZM110.627 148.293C110.627 150.293 108.76 152.959 107.827 152.293C105.827 151.093 106.493 147.759 108.627 147.759C109.693 147.759 110.627 148.026 110.627 148.293ZM115.96 149.093C115.96 149.759 115.427 150.426 114.627 150.426C113.96 150.426 113.293 152.159 113.293 154.426C113.293 157.893 112.893 158.426 109.693 158.293C107.427 158.159 106.893 157.893 108.36 157.493C109.56 157.226 110.627 156.026 110.627 154.959C110.627 152.693 113.56 147.759 114.893 147.759C115.56 147.759 115.96 148.293 115.96 149.093ZM77.6935 157.893L82.6268 158.693V167.226C82.6268 180.426 81.1601 180.026 72.6268 164.559C68.3601 156.959 67.9601 155.626 70.0935 156.159C71.4268 156.559 74.8935 157.359 77.6935 157.893ZM89.9601 159.759C92.4935 159.759 91.9601 175.359 89.4268 176.959C88.0935 177.759 88.0935 178.293 89.2935 178.693C90.0935 178.959 90.6268 180.826 90.3601 182.826L89.9601 186.559L85.2935 182.559C81.6935 179.626 81.1601 178.426 82.6268 177.893C84.2268 177.226 84.4935 175.093 84.2268 167.626C83.8268 159.093 83.9601 158.159 85.9601 158.959C87.1601 159.359 89.0268 159.759 89.9601 159.759ZM97.4268 164.693C96.3601 166.693 96.0935 166.693 95.9601 164.959C95.9601 162.693 97.2935 160.693 98.3601 161.626C98.6268 162.026 98.2268 163.359 97.4268 164.693ZM95.8268 169.759C95.8268 170.426 95.2935 170.159 94.6268 169.093C93.9601 168.026 93.4268 166.159 93.4268 165.093C93.4268 162.959 95.6935 167.226 95.8268 169.759ZM108.36 168.026C111.293 170.293 112.893 177.093 110.493 177.093C106.76 176.959 102.627 172.559 103.427 169.359C104.36 166.026 105.293 165.759 108.36 168.026ZM95.0268 174.426C94.6268 175.893 94.0935 177.093 93.8268 177.093C93.5601 177.093 93.2935 175.893 93.2935 174.426C93.2935 172.959 93.8268 171.759 94.4935 171.759C95.1601 171.759 95.4268 172.959 95.0268 174.426ZM187.693 176.559C190.76 177.093 193.693 177.893 193.96 178.426C194.76 179.626 177.027 184.159 174.227 183.493C172.627 183.093 172.627 182.426 174.227 178.693C175.693 174.959 176.627 174.293 179.027 174.959C180.627 175.359 184.493 176.026 187.693 176.559ZM221.293 188.559C221.293 193.626 220.893 194.559 219.027 194.159C217.293 193.893 216.493 192.159 216.227 188.026C215.827 183.093 216.093 182.426 218.493 182.426C220.893 182.426 221.293 183.226 221.293 188.559ZM219.96 202.426C219.96 207.493 219.427 209.093 217.96 209.093C216.493 209.093 215.96 207.493 215.96 202.426C215.96 197.359 216.493 195.759 217.96 195.759C219.427 195.759 219.96 197.359 219.96 202.426Z" fill="black"/>
<path d="M124.36 11.3594C126.36 11.6261 129.294 11.6261 131.027 11.3594C132.627 11.0927 131.027 10.8261 127.294 10.8261C123.694 10.8261 122.227 11.0927 124.36 11.3594Z" fill="black"/>
<path d="M138.36 12.6927C140.76 12.9594 144.36 12.9594 146.36 12.6927C148.36 12.426 146.36 12.1594 141.96 12.1594C137.56 12.1594 135.96 12.426 138.36 12.6927Z" fill="black"/>
<path d="M154.36 14.0261C155.96 14.2927 158.627 14.2927 160.36 14.0261C161.96 13.7594 160.627 13.4927 157.293 13.4927C153.96 13.4927 152.627 13.7594 154.36 14.0261Z" fill="black"/>
<path d="M102.76 21.8927C102.76 23.3594 103.16 23.7594 103.56 22.6927C103.96 21.7594 103.827 20.5594 103.427 20.1594C103.027 19.626 102.627 20.426 102.76 21.8927Z" fill="black"/>
<path d="M174.627 121.893C165.427 128.159 156.494 134.159 154.627 135.359C144.627 141.759 135.16 148.426 134.36 149.626C132.894 151.893 137.16 153.359 142.36 152.559C146.094 151.893 146.76 152.026 145.294 153.093C143.827 154.293 144.76 154.426 149.294 153.893C153.16 153.359 154.36 153.493 152.627 154.293C150.494 155.093 151.16 155.493 156.094 156.293C159.56 156.826 164.094 156.826 166.094 156.426C169.16 155.759 169.56 155.893 167.96 157.093C166.36 158.293 167.294 158.426 171.96 157.893C176.494 157.226 177.294 157.493 175.294 158.426C173.294 159.493 174.227 159.626 179.027 158.959C182.494 158.559 185.294 158.826 185.294 159.359C185.294 160.026 186.894 160.426 189.027 160.293C191.027 160.293 193.027 160.826 193.56 161.626C194.094 162.426 198.36 163.093 203.427 162.959C209.294 162.959 211.56 163.226 209.827 164.026C208.227 164.693 209.827 164.826 213.96 164.426C218.894 164.026 219.96 164.159 217.96 165.093C215.96 166.026 216.76 166.293 221.294 165.759C225.96 165.226 226.627 165.359 224.627 166.426C222.227 167.626 222.36 167.759 225.56 167.359C227.56 167.093 229.427 167.359 229.56 167.893C229.827 168.559 233.827 165.359 238.627 160.826C243.427 156.159 254.227 146.159 262.627 138.426C271.027 130.826 277.96 123.893 277.96 123.226C277.96 121.759 267.16 119.626 246.627 116.959C236.76 115.759 233.827 114.959 236.627 114.426C239.694 113.893 237.96 113.226 229.294 112.026C214.76 109.893 209.56 110.293 222.627 112.426C236.76 114.826 228.76 114.693 211.294 112.426C203.294 111.359 195.427 110.426 193.96 110.559C192.494 110.559 183.827 115.626 174.627 121.893ZM205.96 113.759C215.56 114.693 273.827 122.826 274.36 123.226C274.76 123.493 270.894 127.093 253.427 143.093C249.427 146.693 244.894 150.959 243.427 152.559C241.827 154.026 238.094 157.493 235.16 160.159L229.56 165.093L219.827 163.093C214.36 161.893 207.294 161.226 203.96 161.626C199.56 162.159 198.894 162.026 201.294 161.093L204.627 160.026L200.76 159.893C196.894 159.759 143.56 150.693 140.094 149.626C137.96 148.959 143.694 144.693 172.494 125.626C184.76 117.493 194.494 111.893 195.827 112.293C197.027 112.559 201.56 113.226 205.96 113.759ZM160.894 155.226C160.494 155.626 159.294 155.759 158.36 155.359C157.294 154.959 157.694 154.559 159.16 154.559C160.627 154.426 161.427 154.826 160.894 155.226Z" fill="black"/>
<path d="M246.627 115.226C247.693 115.493 259.427 117.226 272.627 119.093C285.827 121.093 297.027 122.959 297.56 123.493C298.76 124.693 297.293 131.759 295.827 131.759C294.093 131.759 294.36 127.226 296.36 125.093C297.56 123.759 297.16 123.759 294.76 125.226C292.893 126.426 291.16 128.159 290.893 129.093C290.493 130.026 290.893 130.426 291.827 129.893C292.627 129.359 293.293 129.626 293.293 130.426C293.293 131.226 292.493 131.759 291.693 131.626C285.693 130.559 266.627 137.493 266.627 140.693C266.627 141.626 268.227 143.093 270.227 143.893C273.827 145.226 273.827 145.226 258.093 160.959L242.493 176.559L228.893 174.159C221.427 172.826 214.093 171.893 212.627 172.026C211.16 172.293 217.027 173.493 225.693 174.959C237.427 176.826 241.693 178.026 242.36 179.626C243.027 181.359 243.293 181.093 243.96 178.559C244.36 176.826 245.827 174.693 247.293 173.893C248.627 173.093 251.027 171.093 252.36 169.359C253.693 167.759 258.76 162.426 263.427 157.626C269.293 151.759 271.96 149.759 271.96 151.359C271.96 154.159 251.293 176.293 249.56 175.226C249.027 174.826 247.427 195.759 246.093 221.493C244.893 247.359 243.56 269.893 243.16 271.759L242.493 275.093L244.893 271.493C246.227 269.626 253.293 260.293 260.493 250.826C267.827 241.493 276.36 230.293 279.56 226.026C282.893 221.893 285.693 218.426 285.96 218.426C286.227 218.426 286.227 222.026 286.227 226.426C286.093 230.693 286.36 233.893 286.76 233.359C287.293 232.826 287.96 225.226 288.36 216.426C288.627 207.626 288.627 203.359 288.093 207.093C287.293 214.026 284.627 218.026 264.76 243.093C260.627 248.159 255.16 255.626 252.493 259.493C245.427 269.759 244.893 269.626 245.693 257.626C246.227 251.893 246.893 239.226 247.293 229.759C248.36 204.559 249.027 200.826 251.693 201.626C252.893 202.026 257.693 202.959 262.227 203.893C269.56 205.226 270.493 205.759 271.027 208.959C271.427 211.759 271.56 211.493 271.693 207.759C271.96 203.226 271.693 203.093 267.027 202.826C264.36 202.693 259.293 201.893 255.693 201.093C250.493 199.759 249.293 198.959 249.293 196.693C249.293 194.026 256.36 183.893 268.627 168.693L272.627 163.759L273.427 171.359L274.227 179.093L274.36 170.826C274.627 160.293 275.427 158.693 280.76 156.426C284.627 154.826 285.027 154.159 284.627 150.559C284.36 148.293 284.493 146.426 285.027 146.426C287.027 146.559 290.36 149.893 291.293 153.093C291.827 154.826 293.027 156.959 293.827 157.893C295.027 158.959 295.16 163.226 294.36 173.226C293.693 180.826 293.427 188.559 293.56 190.426C293.827 192.293 294.493 186.826 295.16 178.426C295.827 170.026 296.493 162.559 296.893 162.026C297.293 161.359 299.027 162.293 300.76 163.893C305.827 168.693 306.093 165.893 301.427 156.959C297.827 150.293 297.16 148.026 297.96 144.026C298.493 141.359 299.427 138.293 300.227 137.359C301.16 136.293 301.16 135.226 300.093 133.893C299.027 132.693 298.76 130.159 299.293 127.359C299.827 124.693 299.693 122.426 298.76 121.893C297.027 120.826 252.493 114.426 247.96 114.559C246.093 114.693 245.56 114.959 246.627 115.226ZM291.293 138.426C291.693 139.226 290.76 140.293 289.027 140.959C287.293 141.626 284.493 143.626 282.627 145.493C278.36 149.759 275.293 148.426 276.36 142.959C277.027 139.493 276.893 139.359 275.293 141.493C273.827 143.626 273.027 143.759 270.493 142.426L267.56 140.693L270.76 138.959C274.493 136.826 290.093 136.426 291.293 138.426ZM262.627 168.026C260.227 171.226 256.76 176.026 254.76 178.693C250.893 184.293 248.627 185.226 250.093 180.693C250.893 178.159 264.893 162.426 266.36 162.426C266.627 162.426 264.893 164.959 262.627 168.026Z" fill="black"/>
<path d="M67.0269 130.026C68.2269 130.293 70.0935 130.293 71.0269 130.026C71.8269 129.626 70.8935 129.359 68.6269 129.359C66.4935 129.359 65.6935 129.626 67.0269 130.026Z" fill="black"/>
<path d="M11.0266 138.026C13.6933 138.293 15.96 139.093 15.96 139.626C15.96 140.293 17.56 140.426 19.6933 140.026L23.2933 139.226L19.2933 138.293C17.16 137.759 13.16 137.493 10.6266 137.493H5.95996L11.0266 138.026Z" fill="black"/>
<path d="M26.6268 141.093C28.4935 141.626 31.8268 142.159 33.9601 142.159H37.9601L33.9601 141.093C31.8268 140.559 28.4935 140.026 26.6268 140.026H23.2935L26.6268 141.093Z" fill="black"/>
<path d="M1.69336 153.759C1.69336 158.826 1.96003 160.826 2.22669 158.026C2.49336 155.359 2.49336 151.093 2.22669 148.693C1.96003 146.426 1.69336 148.559 1.69336 153.759Z" fill="black"/>
<path d="M16.0933 150.293C16.36 154.426 16.4933 154.559 16.8933 151.359C17.2933 148.693 18.2266 147.759 20.36 147.759C25.0266 147.759 26.36 149.493 27.0266 155.759L27.56 161.759L27.6933 155.493C27.96 150.159 28.36 149.226 31.0266 148.826C32.6266 148.559 29.96 147.759 25.0266 146.959L15.96 145.626L16.0933 150.293Z" fill="black"/>
<path d="M37.6934 150.026C38.8934 150.293 40.76 150.293 41.6934 150.026C42.4934 149.626 41.56 149.359 39.2934 149.359C37.16 149.359 36.36 149.626 37.6934 150.026Z" fill="black"/>
<path d="M45.6934 151.359C46.8934 151.626 48.76 151.626 49.6934 151.359C50.4934 150.959 49.56 150.693 47.2934 150.693C45.16 150.693 44.36 150.959 45.6934 151.359Z" fill="black"/>
<path d="M53.0268 152.693C53.8268 152.959 55.4268 152.959 56.3601 152.693C57.1601 152.293 56.4934 152.026 54.6268 152.026C52.7601 152.026 52.0934 152.293 53.0268 152.693Z" fill="black"/>
<path d="M123.96 157.759C128.76 158.826 134.093 159.626 135.96 159.493C137.827 159.493 135.427 158.693 130.627 157.759C125.827 156.693 120.493 155.893 118.627 156.026C116.76 156.026 119.16 156.826 123.96 157.759Z" fill="black"/>
<path d="M141.694 160.693C142.894 160.959 145.027 160.959 146.36 160.693C147.56 160.293 146.494 160.026 143.96 160.026C141.427 160.026 140.36 160.293 141.694 160.693Z" fill="black"/>
<path d="M175.293 166.426C189.96 169.226 203.427 171.626 205.293 171.493C209.293 171.493 205.427 170.559 175.693 165.226C163.427 162.959 152.36 161.093 151.027 161.226C149.693 161.226 160.627 163.626 175.293 166.426Z" fill="black"/>
<path d="M291.027 169.759C291.027 174.826 291.294 176.826 291.56 174.026C291.827 171.359 291.827 167.093 291.56 164.693C291.294 162.426 291.027 164.559 291.027 169.759Z" fill="black"/>
<path d="M17.6934 176.426C17.6934 182.293 17.96 184.559 18.2267 181.359C18.4934 178.293 18.4934 173.493 18.2267 170.693C17.96 168.026 17.6934 170.559 17.6934 176.426Z" fill="black"/>
<path d="M3.02686 176.426C3.02686 181.493 3.29352 183.493 3.56019 180.693C3.82686 178.026 3.82686 173.759 3.56019 171.359C3.29352 169.093 3.02686 171.226 3.02686 176.426Z" fill="black"/>
<path d="M272.36 189.759C272.36 194.159 272.627 195.759 272.894 193.359C273.16 190.959 273.16 187.359 272.894 185.359C272.627 183.359 272.36 185.359 272.36 189.759Z" fill="black"/>
<path d="M289.693 190.426C289.693 194.426 289.96 196.159 290.227 194.026C290.493 192.026 290.493 188.826 290.227 186.693C289.96 184.693 289.693 186.426 289.693 190.426Z" fill="black"/>
<path d="M241.56 197.359C241.427 202.959 240.893 208.693 240.493 210.026C239.827 212.293 239.827 212.293 241.293 210.159C242.093 208.693 242.493 203.626 242.227 197.493L241.827 187.093L241.56 197.359Z" fill="black"/>
<path d="M19.0269 203.093C19.0269 208.959 19.2935 211.226 19.5602 208.026C19.8269 204.959 19.8269 200.159 19.5602 197.359C19.2935 194.693 19.0269 197.226 19.0269 203.093Z" fill="black"/>
<path d="M4.36035 204.426C4.36035 209.493 4.62702 211.493 4.89368 208.693C5.16035 206.026 5.16035 201.759 4.89368 199.359C4.62702 197.093 4.36035 199.226 4.36035 204.426Z" fill="black"/>
<path d="M292.36 203.093C292.36 207.493 292.627 209.093 292.894 206.693C293.16 204.293 293.16 200.693 292.894 198.693C292.627 196.693 292.36 198.693 292.36 203.093Z" fill="black"/>
<path d="M274.36 212.693C275.16 212.959 276.76 212.959 277.694 212.693C278.494 212.293 277.827 212.026 275.96 212.026C274.094 212.026 273.427 212.293 274.36 212.693Z" fill="black"/>
<path d="M239.96 224.026C239.56 230.426 239.827 235.093 240.36 234.559C240.894 234.026 241.294 228.826 241.027 222.959L240.627 212.426L239.96 224.026Z" fill="black"/>
<path d="M281.027 214.026C281.827 214.293 283.427 214.293 284.36 214.026C285.16 213.626 284.493 213.359 282.627 213.359C280.76 213.359 280.093 213.626 281.027 214.026Z" fill="black"/>
<path d="M291.027 223.759C291.027 227.759 291.294 229.493 291.56 227.359C291.827 225.359 291.827 222.159 291.56 220.026C291.294 218.026 291.027 219.759 291.027 223.759Z" fill="black"/>
<path d="M5.42676 232.693C5.42676 237.893 5.69342 242.559 6.36009 242.826C6.89342 243.226 7.16009 240.426 6.89342 236.693C6.22676 224.426 5.69342 222.826 5.42676 232.693Z" fill="black"/>
<path d="M276.494 235.359C272.227 241.093 267.694 246.959 266.627 248.559C258.227 260.559 244.76 276.959 243.827 276.293C243.16 275.893 242.76 280.826 242.894 287.359L243.027 299.093L243.827 289.093L244.627 279.093L255.027 265.759C275.427 239.493 285.427 226.159 284.894 225.626C284.627 225.226 280.76 229.626 276.494 235.359Z" fill="black"/>
<path d="M20.3604 236.693C20.4937 238.959 20.8937 240.693 21.427 240.293C21.9604 240.026 24.227 240.159 26.4937 240.559C30.627 241.359 30.627 241.493 30.627 249.626C30.627 254.026 31.1604 258.559 31.827 259.626C32.4937 260.559 32.627 257.359 32.227 251.893L31.5604 242.426L35.427 242.293C39.827 242.159 39.427 242.026 29.027 239.759C23.1604 238.426 21.2937 237.359 20.8937 235.226C20.4937 233.626 20.3604 234.293 20.3604 236.693Z" fill="black"/>
<path d="M285.56 242.026C285.427 245.759 284.893 250.026 284.493 251.359C283.96 252.959 284.76 252.559 287.16 250.026C289.293 247.759 290.627 244.826 290.493 242.693C290.36 240.026 290.227 239.759 289.693 241.759C288.36 248.026 287.427 248.026 286.627 241.759L285.693 235.093L285.56 242.026Z" fill="black"/>
<path d="M239.027 249.093C239.027 255.359 239.294 257.893 239.56 254.693C239.827 251.626 239.827 246.559 239.56 243.359C239.294 240.293 239.027 242.826 239.027 249.093Z" fill="black"/>
<path d="M63.6935 240.693C64.6268 241.093 65.8268 240.959 66.2268 240.559C66.7601 240.159 65.9601 239.759 64.4935 239.893C63.0268 239.893 62.6268 240.293 63.6935 240.693Z" fill="black"/>
<path d="M70.3603 242.026C71.1603 242.293 72.7603 242.293 73.6936 242.026C74.4936 241.626 73.8269 241.359 71.9603 241.359C70.0936 241.359 69.4269 241.626 70.3603 242.026Z" fill="black"/>
<path d="M21.8267 254.426C21.8267 261.359 21.96 264.293 22.2267 260.693C22.4933 257.226 22.4933 251.626 22.2267 248.026C21.96 244.559 21.8267 247.493 21.8267 254.426Z" fill="black"/>
<path d="M41.0268 243.359C41.8268 243.626 43.4268 243.626 44.3601 243.359C45.1601 242.959 44.4934 242.693 42.6268 242.693C40.7601 242.693 40.0934 242.959 41.0268 243.359Z" fill="black"/>
<path d="M95.2933 247.759C106.36 250.559 116.493 252.826 117.96 252.826C119.427 252.826 111.293 250.559 99.9599 247.759C88.6266 244.826 78.3599 242.559 77.2933 242.693C76.2266 242.693 84.3599 244.959 95.2933 247.759Z" fill="black"/>
<path d="M135.027 243.359C136.227 243.626 138.36 243.626 139.693 243.359C140.893 242.959 139.827 242.693 137.293 242.693C134.76 242.693 133.693 242.959 135.027 243.359Z" fill="black"/>
<path d="M171.027 243.359C172.227 243.626 174.094 243.626 175.027 243.359C175.827 242.959 174.894 242.693 172.627 242.693C170.494 242.693 169.694 242.959 171.027 243.359Z" fill="black"/>
<path d="M47.6935 244.693C48.6268 245.093 49.8268 244.959 50.2268 244.559C50.7601 244.159 49.9601 243.759 48.4935 243.893C47.0268 243.893 46.6268 244.293 47.6935 244.693Z" fill="black"/>
<path d="M149.027 244.693C151.293 244.959 155.293 244.959 157.693 244.693C159.96 244.426 158.093 244.159 153.293 244.159C148.493 244.159 146.627 244.426 149.027 244.693Z" fill="black"/>
<path d="M163.693 244.693C164.627 245.093 165.827 244.959 166.227 244.559C166.76 244.159 165.96 243.759 164.493 243.893C163.027 243.893 162.627 244.293 163.693 244.693Z" fill="black"/>
<path d="M7.02686 254.426C7.02686 259.893 7.29352 262.159 7.56019 259.359C7.82686 256.693 7.82686 252.159 7.56019 249.359C7.29352 246.693 7.02686 248.959 7.02686 254.426Z" fill="black"/>
<path d="M53.9604 246.426C55.427 247.093 57.827 247.493 59.2937 247.493C61.427 247.493 61.2937 247.226 58.627 246.426C54.0937 244.959 50.627 244.959 53.9604 246.426Z" fill="black"/>
<path d="M63.6935 248.693C64.6268 249.093 65.8268 248.959 66.2268 248.559C66.7601 248.159 65.9601 247.759 64.4935 247.893C63.0268 247.893 62.6268 248.293 63.6935 248.693Z" fill="black"/>
<path d="M69.027 250.026C69.9603 250.426 71.1603 250.293 71.5603 249.893C72.0936 249.493 71.2936 249.093 69.827 249.226C68.3603 249.226 67.9603 249.626 69.027 250.026Z" fill="black"/>
<path d="M273.293 250.426C275.16 250.959 277.827 251.493 279.293 251.493C281.427 251.493 281.293 251.226 278.627 250.426C276.76 249.893 274.093 249.359 272.627 249.359C270.493 249.359 270.627 249.626 273.293 250.426Z" fill="black"/>
<path d="M74.36 251.359C75.2933 251.759 76.4933 251.626 76.8933 251.226C77.4266 250.826 76.6266 250.426 75.16 250.559C73.6933 250.559 73.2933 250.959 74.36 251.359Z" fill="black"/>
<path d="M79.6935 252.693C80.6268 253.093 81.8268 252.959 82.2268 252.559C82.7601 252.159 81.9601 251.759 80.4935 251.893C79.0268 251.893 78.6268 252.293 79.6935 252.693Z" fill="black"/>
<path d="M122.36 254.026C123.16 254.293 124.76 254.293 125.694 254.026C126.494 253.626 125.827 253.359 123.96 253.359C122.094 253.359 121.427 253.626 122.36 254.026Z" fill="black"/>
<path d="M93.027 255.359C93.9603 255.759 95.1603 255.626 95.5603 255.226C96.0936 254.826 95.2936 254.426 93.827 254.559C92.3603 254.559 91.9603 254.959 93.027 255.359Z" fill="black"/>
<path d="M147.96 259.893C159.293 262.693 169.56 264.959 170.627 264.959C171.693 264.826 163.293 262.559 151.96 259.626C140.627 256.826 130.36 254.559 129.293 254.559C128.227 254.693 136.627 257.093 147.96 259.893Z" fill="black"/>
<path d="M98.36 256.693C99.2933 257.093 100.493 256.959 100.893 256.559C101.427 256.159 100.627 255.759 99.16 255.893C97.6933 255.893 97.2933 256.293 98.36 256.693Z" fill="black"/>
<path d="M103.693 258.026C104.627 258.426 105.827 258.293 106.227 257.893C106.76 257.493 105.96 257.093 104.493 257.226C103.027 257.226 102.627 257.626 103.693 258.026Z" fill="black"/>
<path d="M110.627 259.759C112.493 260.293 115.16 260.826 116.627 260.826C118.76 260.826 118.627 260.559 115.96 259.759C114.093 259.226 111.427 258.693 109.96 258.693C107.827 258.693 107.96 258.959 110.627 259.759Z" fill="black"/>
<path d="M121.027 262.026C121.96 262.426 123.16 262.293 123.56 261.893C124.094 261.493 123.294 261.093 121.827 261.226C120.36 261.226 119.96 261.626 121.027 262.026Z" fill="black"/>
<path d="M27.2933 265.226C24.2266 267.226 21.9599 267.759 17.2933 267.226C13.2933 266.826 12.0933 266.959 13.9599 267.759C18.8933 269.893 24.4933 269.093 28.6266 265.759C33.4266 261.759 32.7599 261.493 27.2933 265.226Z" fill="black"/>
<path d="M127.293 263.759C128.76 264.426 131.16 264.826 132.627 264.826C134.76 264.826 134.627 264.559 131.96 263.759C127.427 262.293 123.96 262.293 127.293 263.759Z" fill="black"/>
<path d="M237.693 273.759C237.693 279.626 237.96 281.893 238.227 278.693C238.493 275.626 238.493 270.826 238.227 268.026C237.96 265.359 237.693 267.893 237.693 273.759Z" fill="black"/>
<path d="M175.027 266.026C176.227 266.293 178.094 266.293 179.027 266.026C179.827 265.626 178.894 265.359 176.627 265.359C174.494 265.359 173.694 265.626 175.027 266.026Z" fill="black"/>
<path d="M145.96 267.759C147.427 268.426 149.827 268.826 151.294 268.826C153.427 268.826 153.294 268.559 150.627 267.759C146.094 266.293 142.627 266.293 145.96 267.759Z" fill="black"/>
<path d="M181.427 266.959C182.094 267.626 215.427 275.759 217.294 275.759C218.094 275.759 218.627 275.093 218.627 274.293C218.627 273.626 218.094 273.226 217.56 273.626C216.894 274.026 208.894 272.559 199.827 270.426C183.427 266.426 180.36 265.893 181.427 266.959Z" fill="black"/>
<path d="M155.693 270.026C156.627 270.426 157.827 270.293 158.227 269.893C158.76 269.493 157.96 269.093 156.493 269.226C155.027 269.226 154.627 269.626 155.693 270.026Z" fill="black"/>
<path d="M161.027 271.359C161.96 271.759 163.16 271.626 163.56 271.226C164.094 270.826 163.294 270.426 161.827 270.559C160.36 270.559 159.96 270.959 161.027 271.359Z" fill="black"/>
<path d="M166.36 272.693C167.293 273.093 168.493 272.959 168.893 272.559C169.427 272.159 168.627 271.759 167.16 271.893C165.693 271.893 165.293 272.293 166.36 272.693Z" fill="black"/>
<path d="M171.693 274.026C172.627 274.426 173.827 274.293 174.227 273.893C174.76 273.493 173.96 273.093 172.493 273.226C171.027 273.226 170.627 273.626 171.693 274.026Z" fill="black"/>
<path d="M178.627 275.759C183.16 277.226 186.627 277.226 183.293 275.759C181.827 275.093 179.427 274.693 177.96 274.693C175.827 274.693 175.96 274.959 178.627 275.759Z" fill="black"/>
<path d="M195.693 279.359C196.627 279.759 197.827 279.626 198.227 279.226C198.76 278.826 197.96 278.426 196.493 278.559C195.027 278.559 194.627 278.959 195.693 279.359Z" fill="black"/>
<path d="M202.627 281.093C207.16 282.559 210.627 282.559 207.293 281.093C205.827 280.426 203.427 280.026 201.96 280.026C199.827 280.026 199.96 280.293 202.627 281.093Z" fill="black"/>
<path d="M213.294 283.626C216.36 284.426 216.627 285.226 217.427 295.093L218.094 305.759L218.36 294.959C218.627 283.626 217.96 282.159 212.227 282.559C210.894 282.693 211.427 283.093 213.294 283.626Z" fill="black"/>
<path d="M236.36 299.093C236.36 304.959 236.627 307.226 236.894 304.026C237.16 300.959 237.16 296.159 236.894 293.359C236.627 290.693 236.36 293.226 236.36 299.093Z" fill="black"/>
<path d="M241.427 309.759C241.427 311.893 240.094 315.493 238.76 317.626L236.227 321.493L235.56 316.959L235.027 312.426L234.894 317.359C234.76 320.026 233.827 322.559 233.027 322.826C231.96 323.226 232.227 323.626 233.56 323.626C237.027 323.759 242.894 314.159 242.227 309.493L241.694 305.759L241.427 309.759Z" fill="black"/>
<path d="M216.36 314.959C216.493 317.226 217.56 319.093 218.627 319.359C219.96 319.759 220.093 319.626 219.16 318.826C218.227 318.293 217.293 316.293 216.893 314.426C216.36 311.493 216.227 311.626 216.36 314.959Z" fill="black"/>
<path d="M222.36 320.693C223.293 321.093 224.493 320.959 224.893 320.559C225.427 320.159 224.627 319.759 223.16 319.893C221.693 319.893 221.293 320.293 222.36 320.693Z" fill="black"/>
<path d="M227.693 322.026C228.627 322.426 229.827 322.293 230.227 321.893C230.76 321.493 229.96 321.093 228.493 321.226C227.027 321.226 226.627 321.626 227.693 322.026Z" fill="black"/>
</svg>
